<mxfile host="app.diagrams.net" modified="2023-09-27T19:09:41.509Z" agent="Mozilla/5.0 (Windows NT 10.0; Win64; x64) AppleWebKit/537.36 (KHTML, like Gecko) Chrome/117.0.0.0 Safari/537.36" etag="imahqviD5pwbic7g9fUn" version="21.8.2" type="device">
  <diagram id="R2lEEEUBdFMjLlhIrx00" name="Page-1">
    <mxGraphModel dx="1018" dy="753" grid="1" gridSize="10" guides="1" tooltips="1" connect="1" arrows="1" fold="1" page="1" pageScale="1" pageWidth="850" pageHeight="1100" math="0" shadow="0" extFonts="Permanent Marker^https://fonts.googleapis.com/css?family=Permanent+Marker">
      <root>
        <mxCell id="0" />
        <mxCell id="1" parent="0" />
        <mxCell id="qkPU0WN3MBVB0kJu1MMR-1" value="&lt;span style=&quot;font-size: 24px;&quot;&gt;Veterinario&lt;/span&gt;" style="rounded=0;whiteSpace=wrap;html=1;" parent="1" vertex="1">
          <mxGeometry x="40" y="320" width="200" height="120" as="geometry" />
        </mxCell>
        <mxCell id="qkPU0WN3MBVB0kJu1MMR-3" value="&lt;font style=&quot;font-size: 24px;&quot;&gt;Atiende&lt;/font&gt;" style="rhombus;whiteSpace=wrap;html=1;" parent="1" vertex="1">
          <mxGeometry x="330" y="320" width="210" height="120" as="geometry" />
        </mxCell>
        <mxCell id="qkPU0WN3MBVB0kJu1MMR-6" value="" style="endArrow=none;html=1;rounded=0;exitX=1;exitY=0.5;exitDx=0;exitDy=0;entryX=0;entryY=0.5;entryDx=0;entryDy=0;" parent="1" source="qkPU0WN3MBVB0kJu1MMR-1" target="qkPU0WN3MBVB0kJu1MMR-3" edge="1">
          <mxGeometry width="50" height="50" relative="1" as="geometry">
            <mxPoint x="400" y="430" as="sourcePoint" />
            <mxPoint x="320" y="380" as="targetPoint" />
          </mxGeometry>
        </mxCell>
        <mxCell id="qkPU0WN3MBVB0kJu1MMR-11" value="&lt;font style=&quot;font-size: 18px;&quot;&gt;(1:1)&lt;/font&gt;" style="text;html=1;align=center;verticalAlign=middle;resizable=0;points=[];autosize=1;strokeColor=none;fillColor=none;" parent="1" vertex="1">
          <mxGeometry x="240" y="310" width="60" height="40" as="geometry" />
        </mxCell>
        <mxCell id="qkPU0WN3MBVB0kJu1MMR-14" value="&lt;font style=&quot;font-size: 18px;&quot;&gt;1:1:N&lt;/font&gt;" style="text;html=1;align=center;verticalAlign=middle;resizable=0;points=[];autosize=1;strokeColor=none;fillColor=none;" parent="1" vertex="1">
          <mxGeometry x="400" y="280" width="70" height="40" as="geometry" />
        </mxCell>
        <mxCell id="qkPU0WN3MBVB0kJu1MMR-24" value="" style="endArrow=none;html=1;rounded=0;entryX=1;entryY=0.5;entryDx=0;entryDy=0;" parent="1" target="qkPU0WN3MBVB0kJu1MMR-3" edge="1">
          <mxGeometry width="50" height="50" relative="1" as="geometry">
            <mxPoint x="640" y="380" as="sourcePoint" />
            <mxPoint x="530" y="440" as="targetPoint" />
          </mxGeometry>
        </mxCell>
        <mxCell id="qkPU0WN3MBVB0kJu1MMR-27" value="&lt;font style=&quot;font-size: 24px;&quot;&gt;Animal&lt;/font&gt;" style="rounded=0;whiteSpace=wrap;html=1;" parent="1" vertex="1">
          <mxGeometry x="640" y="320" width="200" height="120" as="geometry" />
        </mxCell>
        <mxCell id="qkPU0WN3MBVB0kJu1MMR-31" value="&lt;span style=&quot;font-size: 18px;&quot;&gt;(0:N)&lt;/span&gt;" style="text;html=1;align=center;verticalAlign=middle;resizable=0;points=[];autosize=1;strokeColor=none;fillColor=none;" parent="1" vertex="1">
          <mxGeometry x="580" y="313" width="60" height="40" as="geometry" />
        </mxCell>
        <mxCell id="iVhM5yEDJjAeYNvJwegK-1" value="" style="endArrow=none;html=1;rounded=0;exitX=0.5;exitY=0;exitDx=0;exitDy=0;entryX=0.5;entryY=1;entryDx=0;entryDy=0;" edge="1" parent="1" source="iVhM5yEDJjAeYNvJwegK-2" target="qkPU0WN3MBVB0kJu1MMR-3">
          <mxGeometry width="50" height="50" relative="1" as="geometry">
            <mxPoint x="390" y="490" as="sourcePoint" />
            <mxPoint x="430" y="460" as="targetPoint" />
          </mxGeometry>
        </mxCell>
        <mxCell id="iVhM5yEDJjAeYNvJwegK-2" value="&lt;span style=&quot;font-size: 24px;&quot;&gt;Medicamento&lt;/span&gt;" style="rounded=0;whiteSpace=wrap;html=1;" vertex="1" parent="1">
          <mxGeometry x="335" y="530" width="200" height="120" as="geometry" />
        </mxCell>
        <mxCell id="iVhM5yEDJjAeYNvJwegK-3" value="&lt;font style=&quot;font-size: 18px;&quot;&gt;(1:1)&lt;/font&gt;" style="text;html=1;align=center;verticalAlign=middle;resizable=0;points=[];autosize=1;strokeColor=none;fillColor=none;" vertex="1" parent="1">
          <mxGeometry x="370" y="423" width="60" height="40" as="geometry" />
        </mxCell>
        <mxCell id="iVhM5yEDJjAeYNvJwegK-4" value="&lt;font style=&quot;font-size: 18px;&quot;&gt;(0:N)&lt;/font&gt;" style="text;html=1;align=center;verticalAlign=middle;resizable=0;points=[];autosize=1;strokeColor=none;fillColor=none;" vertex="1" parent="1">
          <mxGeometry x="460" y="493" width="60" height="40" as="geometry" />
        </mxCell>
      </root>
    </mxGraphModel>
  </diagram>
</mxfile>
